<?xml version="1.0" encoding="UTF-8"?>
<svg version="1.1" xmlns="http://www.w3.org/2000/svg" width="162" height="165">
<path d="M0 0 C53.46 0 106.92 0 162 0 C162 54.45 162 108.9 162 165 C108.54 165 55.08 165 0 165 C0 110.55 0 56.1 0 0 Z " fill="#F5F9FB" transform="translate(0,0)"/>
<path d="M0 0 C0.88300781 0.4640625 1.76601562 0.928125 2.67578125 1.40625 C9.24967498 5.08681259 14.63444984 9.74052332 20 15 C20.68964844 15.65355469 21.37929687 16.30710937 22.08984375 16.98046875 C36.98578911 32.23037717 41.66771957 51.96898416 41.53930664 72.6015625 C41.27983604 82.28156291 40.02328971 90.16050946 36 99 C35.71592285 99.63147949 35.4318457 100.26295898 35.13916016 100.91357422 C25.63121923 121.57337648 10.63825855 134.4331757 -10 143 C-10.85851562 143.36867187 -11.71703125 143.73734375 -12.6015625 144.1171875 C-21.84859867 147.5208197 -32.26747655 147.55283819 -42 147 C-43.93167265 145.06832735 -43.1747267 141.61971446 -43.1875 139.0625 C-43.08640282 120.43204729 -35.03036241 106.13228568 -22.09765625 93.08007812 C-18.33064027 89.43422347 -14.4661456 85.90300687 -10.55126953 82.41699219 C-9.2141608 81.19562311 -7.94167092 79.90419215 -6.68359375 78.6015625 C-5 77 -5 77 -3 77 C-2.73574219 76.40960938 -2.47148438 75.81921875 -2.19921875 75.2109375 C-0.95896573 72.92434725 0.36540855 71.46793917 2.1875 69.625 C7.80190843 63.314688 13.40178312 54.43517838 13.5 45.75 C13.23272756 42.19455532 13.23272756 42.19455532 12 40 C3.68673569 37.2289119 -6.08918594 39.0502122 -14.57885742 40.28393555 C-23.34732505 41.45765077 -32.17390583 41.16277633 -41 41 C-41 36.38 -41 31.76 -41 27 C-39.55625 26.71125 -38.1125 26.4225 -36.625 26.125 C-35.7175 25.94195312 -34.81 25.75890625 -33.875 25.5703125 C-32.00235966 25.19883765 -30.12738926 24.83886449 -28.25 24.4921875 C-27.38375 24.32976563 -26.5175 24.16734375 -25.625 24 C-24.83351563 23.855625 -24.04203125 23.71125 -23.2265625 23.5625 C-20.93527383 22.98364813 -19.06710252 22.13265891 -17 21 C-17.10613836 18.54775306 -17.10613836 18.54775306 -18 16 C-25.02510872 11.98565216 -35.75010049 11.72879792 -43.484375 13.6015625 C-46.49215765 14.68831609 -48.72483625 15.72483625 -51 18 C-51.59062188 23.00527017 -51.00802609 28.0858728 -50 33 C-51.35520999 32.10574579 -52.70910161 31.20949359 -54.0625 30.3125 C-54.88492188 29.76980469 -55.70734375 29.22710937 -56.5546875 28.66796875 C-58.67132812 27.22418992 -60.67127207 25.70272096 -62.6875 24.125 C-65.78455415 21.87797742 -65.78455415 21.87797742 -68.9375 21.3125 C-77.42805878 23.21854381 -83.91846277 31.38102322 -89 38 C-91.83875676 42.74140875 -93.93670567 47.379766 -93 53 C-91.47032071 54.96136792 -90.52517826 55.8711219 -88.08984375 56.46875 C-80.3909433 56.58053077 -74.44689369 53.96500888 -68.625 48.95703125 C-64.84248126 45.33398164 -64.84248126 45.33398164 -62 41 C-61.34 41 -60.68 41 -60 41 C-59.305433 42.25580193 -58.64627249 43.53117503 -58 44.8125 C-57.62875 45.52019531 -57.2575 46.22789063 -56.875 46.95703125 C-54.18358925 56.31689275 -56.71314323 64.72790996 -59.875 73.625 C-60.27340088 74.78563965 -60.67180176 75.9462793 -61.08227539 77.14208984 C-64.32497994 86.44527134 -67.91094084 95.60632378 -71.72412109 104.68994141 C-75.01046291 112.60130849 -77.03406265 119.99390845 -77.625 128.5625 C-77.69976562 129.59503906 -77.77453125 130.62757813 -77.8515625 131.69140625 C-77.90054688 132.45324219 -77.94953125 133.21507812 -78 134 C-82.81078634 133.56905205 -85.45045344 131.2812729 -88.8125 128.0625 C-89.33803467 127.56596924 -89.86356934 127.06943848 -90.4050293 126.55786133 C-102.61749704 114.80899254 -109.66489963 101.36150787 -114 85 C-114.1750708 84.38890381 -114.3501416 83.77780762 -114.53051758 83.14819336 C-118.65818458 64.26138009 -113.6995066 44.227664 -104 28 C-92.05836935 9.80739094 -73.99202305 -3.5061488 -52.62109375 -8.4609375 C-34.41329223 -11.171484 -16.23751278 -8.75152604 0 0 Z " fill="#1D222D" transform="translate(119,13)"/>
<path d="M0 0 C1.3293457 0.00483398 1.3293457 0.00483398 2.68554688 0.00976562 C4.05356445 0.02233398 4.05356445 0.02233398 5.44921875 0.03515625 C6.38056641 0.03966797 7.31191406 0.04417969 8.27148438 0.04882812 C10.55996248 0.06056391 12.84830683 0.07698262 15.13671875 0.09765625 C15.13671875 0.42765625 15.13671875 0.75765625 15.13671875 1.09765625 C13.86054687 1.15824219 12.584375 1.21882812 11.26953125 1.28125 C9.60024859 1.36565193 7.93097838 1.45030011 6.26171875 1.53515625 C5.41996094 1.57447266 4.57820313 1.61378906 3.7109375 1.65429688 C2.90527344 1.69619141 2.09960938 1.73808594 1.26953125 1.78125 C0.15408936 1.83623657 0.15408936 1.83623657 -0.98388672 1.89233398 C-2.95192437 1.9972149 -2.95192437 1.9972149 -4.86328125 3.09765625 C-6.53982854 2.8182317 -8.20936279 2.48937378 -9.86328125 2.09765625 C-9.86328125 1.76765625 -9.86328125 1.43765625 -9.86328125 1.09765625 C-6.51236354 0.34402573 -3.43218313 -0.02214312 0 0 Z " fill="#5D6168" transform="translate(74.86328125,3.90234375)"/>
<path d="M0 0 C0.33 0 0.66 0 1 0 C1.66 4.29 2.32 8.58 3 13 C1.35 11.68 -0.3 10.36 -2 9 C-1.41196203 5.97580475 -0.77321882 2.98241547 0 0 Z " fill="#3F424C" transform="translate(66,33)"/>
</svg>
